<svg id="Layer_1" class="fill-color" data-name="Layer 1" xmlns="http://www.w3.org/2000/svg" viewBox="0 0 384 375.58">
<style>
.fill-color {
  fill:#F05E3E;

}
</style>
<path d="M0,328.5c2.33-2.88,5.42-3.58,9-3.28,2.07.18,4.17,0,6.68,0V320q0-97.68,0-195.37c0-13.8,7.47-24.1,20-27.37a41.68,41.68,0,0,1,8.52-1c3.6-.16,7.21,0,10.65,0-.45-4.06-1.45-7.87-1.19-11.6.6-8.64,5.23-14.85,12.88-18.89Q96.27,50,126,34.21,149.52,21.76,173,9.3c12.39-6.6,24.8-6.83,37.28-.35,4.77,2.47,9.52,5,14.23,7.55,3.54,1.94,4.61,5.1,2.92,8.1-1.58,2.78-4.69,3.54-8.15,1.78-4.67-2.37-9.28-4.87-13.92-7.32-9-4.76-17.9-4.7-26.87.06Q125.25,47.38,72,75.57c-4.49,2.37-7.28,5.75-7.28,10.87S67.5,95,72,97.33q53.49,28.24,106.92,56.57c8.3,4.4,16.74,4.78,25.14.53,9.11-4.62,18.09-9.5,27.45-14.45l-23.7-27c-6.35-7.24-12.72-14.45-19-21.72-2.88-3.32-3-6.67-.48-8.94s6-1.74,9.07,1.69q20.9,23.82,41.79,47.64c.81.92,1.67,1.81,2.68,2.89,10.89-5.77,21.67-11.5,32.46-17.21,12.35-6.55,24.66-13.17,37.08-19.59,4.71-2.44,7.95-5.75,8-11.23s-3.25-8.86-7.9-11.3Q276.3,56.67,241.26,38c-1.3-.68-3.15-1.56-3.41-2.67-.49-2.08-.73-4.8.24-6.52,1.55-2.76,4.57-2.69,7.29-1.27q11,5.7,21.88,11.51,23.82,12.63,47.63,25.27c14.1,7.45,18,16.08,13.85,31.9,3.68,0,7.23,0,10.77,0,17.68,0,28.84,11.14,28.85,28.78q0,97.49,0,195v4.79c5.44,1.43,11.57-1.65,15.64,3.69V348c-1.3,3.88-2.1,8-4,11.6-7.45,14.08-19.46,20.22-35.28,20.2q-152.73-.15-305.47-.06c-1.62,0-3.25-.05-4.87-.13a35.4,35.4,0,0,1-22.07-9.06C5.4,364.57,1.9,356.72,0,348ZM235.57,209.35l-1.23-.7c-1,.22-1.94.41-2.9.67-29.8,8.1-59.24,6.91-88.49-3-16.77-5.67-29.34-15.64-36-32.43-3.5-8.83-3.65-18-3.49-27.3.07-4.19,0-8.38,0-12.68H53.36V299h4.56c6.5,0,13-.05,19.5.12,3.2.08,5.07,2,5.2,5.26s-1.67,5.12-4.78,5.71a15.66,15.66,0,0,1-3,.15c-8.38,0-16.75,0-25.13,0-6.17,0-7.83-1.65-7.83-7.75q0-86.05,0-172.11c0-6.3,1.62-7.87,8.08-7.88H90.09c1.23,0,2.47-.12,3.7-.18-2.33-2-4.78-3-6.91-4.47-12.83-9-27-11.69-42.48-10.5-11.36.87-17.51,6.32-17.51,17.82q0,97.86,0,195.74V325h330c.08-1.09.2-1.95.2-2.81q0-99.18,0-198.36c0-9.76-6.4-16.14-16.21-16.31-6.75-.11-13.5-.17-20.25.06a17.86,17.86,0,0,0-7.07,1.73c-6.94,3.42-13.72,7.16-20.56,10.79-1,.52-1.94,1.12-2.91,1.68,14.94.72,29.55.71,44.16.73,6.18,0,7.86,1.65,7.86,7.72q0,86.06,0,172.12c0,6.28-1.65,7.9-8.07,7.9H102.3a17.73,17.73,0,0,1-3.72-.24,5.17,5.17,0,0,1-4.47-5.62A5.09,5.09,0,0,1,99,299.13a42,42,0,0,1,4.49-.13H330.58V134.08H280.52c0,2.07.06,3.82,0,5.56-.32,8.6.34,17.39-1.21,25.76-3.3,17.76-13.87,30.39-30.4,37.81a4.28,4.28,0,0,0-3,4.35A21,21,0,0,0,249.45,221c3,4.46,5.46,9.24,8.06,13.94a16.22,16.22,0,0,1,.75,15.13c-3.78,8.38-10.83,10.55-19.41,10.32-14.24-.39-22.13-13.72-15.21-26.19,2.85-5.13,6.07-10.06,8.71-15.29C233.85,215.9,234.53,212.53,235.57,209.35ZM11.62,336.5c-1.65,13.59,3,23.59,13.09,29.1,4.79,2.6,10,2.92,15.26,2.92q152,0,304,0c1.5,0,3,0,4.5-.08a25.63,25.63,0,0,0,23.73-31.71,6.56,6.56,0,0,0-1.08-.17q-65.06,0-130.09-.08c-2.26,0-2.85,1-3.46,2.93-3.5,10.76-12.44,18.18-23.46,18.48-14.74.41-29.5.54-44.22,0-11.47-.44-19.3-7-23.17-17.73-1.06-2.93-2.34-3.67-5.27-3.66q-63,.13-125.95.06ZM114.75,132.74c0,8-.25,15.49,0,22.93.68,17.31,8.71,30.3,24.67,37.09,30.08,12.8,61,14,92.35,4.77,2.12-.63,3-1.4,3-3.79-.13-13.37-.06-26.75-.07-40.12,0-.67-.12-1.35-.23-2.51-8,4.25-15.65,8.2-23.2,12.29-12.89,7-25.69,6.95-38.61,0-15.62-8.39-31.31-16.63-47-24.93C122.24,136.63,118.73,134.82,114.75,132.74Zm155.21.7-1.38-.39c-6.7,3.56-13.36,7.22-20.14,10.62-2,1-2.49,2.28-2.48,4.36.08,12.24,0,24.48,0,36.72v7.49c11.35-5.89,19.26-14.3,21.48-26.11C269.49,155.46,269.22,144.35,270,133.44ZM226.64,336.77H157.38c2.58,5.82,6.56,9.63,12.51,9.77q22.08.49,44.17,0C220,346.42,224,342.6,226.64,336.77ZM240.4,227.63c-2.6,4.5-4.94,8.33-7.07,12.27-2.5,4.66,0,8.92,5.26,9.12a40.23,40.23,0,0,0,4.11,0c4.61-.32,7.09-4.4,5-8.55S243,232.22,240.4,227.63Z" transform="translate(0 -4.22)"/><path d="M113.18,260.27c-12.35,0-24.71.13-37.05-.13a7.76,7.76,0,0,1-5.41-3c-.85-1.24-.63-4.07.28-5.43a6.9,6.9,0,0,1,5-2.56c24.71-.16,49.41-.13,74.11-.09,3.8,0,6.19,2.29,6.24,5.54,0,3.42-2.4,5.65-6.44,5.67C137.63,260.3,125.41,260.27,113.18,260.27Z" transform="translate(0 -4.22)"/></svg>