<?xml version="1.0" encoding="utf-8"?>
<!-- Generator: Adobe Illustrator 25.0.0, SVG Export Plug-In . SVG Version: 6.00 Build 0)  -->
<svg version="1.1" class="fill-color" id="Layer_1" xmlns="http://www.w3.org/2000/svg" xmlns:xlink="http://www.w3.org/1999/xlink" x="0px" y="0px"
	 viewBox="0 0 384 384" style="enable-background:new 0 0 384 384;" xml:space="preserve">
     <style>
 .fill-color {
  fill:#EFD282;

}
</style>
<path d="M192.2,35.8c50.9,0,101.8,0,152.7,0c11.7,0,20.2,6.1,22.9,16.6c0.5,2.3,0.8,4.6,0.7,7c0,65.3,0,130.5,0,195.8
	c0,14.8-9,23.8-23.9,23.8H39.8C25.1,279,16,269.8,15.9,255c0-65.3,0-130.5,0-195.8c0-14.8,8.8-23.5,23.6-23.5
	C90.4,35.7,141.3,35.7,192.2,35.8z M191.8,245.3c48.8,0.1,88.5-39.4,88.7-88.2c0.1-48.8-39.4-88.7-88.1-88.8
	c-48.9-1.2-89.5,37.5-90.7,86.3s37.5,89.5,86.3,90.7C189.4,245.2,190.6,245.2,191.8,245.3L191.8,245.3z"/>
<path d="M235.6,333.3c-41.4,0-82.7,0-124.1,0c-2.8,0-4.3,0.6-5.8,3.2c-5.1,8.9-13.6,12.2-23.4,12.2c-10,0-18.4-3.5-23.7-12.5
	c-1.4-2.3-2.7-3-5.2-3c-8.6,0.1-17.2,0-25.9,0c-3,0-5.5-0.8-6.4-4c-1-3.8,1.4-6.7,5.8-6.7c8.9-0.1,17.8-0.1,26.6,0
	c2.4,0,4-0.3,4.8-2.9c0.5-1.3,1.3-2.4,2.2-3.5c10.4-12.9,37.5-12.6,45.7,4.1c1.2,2.5,3,2.1,4.9,2.1c54.3,0,108.5,0,162.7,0h85.9
	c1.2-0.1,2.5,0,3.7,0.1c2.9,0.4,4.6,2.2,4.6,5s-1.5,5-4.6,5.4c-1.5,0.1-3,0.2-4.5,0.2L235.6,333.3z"/>
<path d="M156.8,156.8c0-8.4,0-16.8,0-25.1c0.1-13.2,12.8-20.6,24.2-13.9c14.5,8.5,28.9,17.3,43.3,26.1c10,6.1,10.6,19.9,0.7,26.2
	c-14.9,9.5-30.1,18.7-45.6,27.4c-10.1,5.7-22.4-2-22.7-13.7C156.7,174.8,156.8,165.8,156.8,156.8z"/>
</svg>
