
<svg id="Layer_1" class="fill-color" data-name="Layer 1" xmlns="http://www.w3.org/2000/svg" viewBox="0 0 384 384">
<style>
.fill-color {
  fill:#F05E3E;

}
</style>
<path d="M404,74c-.73,7.43-1.38,14.87-2.19,22.29-6.45,58.79-28.54,110.5-69.26,153.92-23.78,25.35-50.34,47-81.11,63.38l-1.7.89L112.46,177.16c2.67-4.7,5.52-10.07,8.71-15.23C147.65,119.1,182,84.09,225.38,58.34c26-15.45,54.45-24.83,84.19-29.95,13.38-2.3,27-3.25,40.51-4.83,1-.12,1.95-.37,2.92-.56h30c1.09.21,2.17.5,3.27.63A19.61,19.61,0,0,1,403,38.54c.42,1.8.65,3.64,1,5.46ZM226.87,144A56.24,56.24,0,1,0,283,87.69,55.93,55.93,0,0,0,226.87,144Z" transform="translate(-20 -23)"/><path d="M211.25,407c-7.9-2.58-14.31-7-16-15.61-2.09-10.51-3.49-21.15-5.27-32.2,40.47-7.95,76.59-25.29,110.3-49.81-.43,5.42-.79,10-1.14,14.51-.5,6.35-.95,12.7-1.51,19a28.5,28.5,0,0,1-13,22.11q-29,19.36-58.11,38.4c-2.34,1.53-5.13,2.39-7.71,3.56Z" transform="translate(-20 -23)"/><path d="M20,208.25c2.48-4.58,4.67-9.34,7.49-13.69,10.89-16.74,22.08-33.29,33-50,6-9.22,14.06-14.57,25.14-15.33,10.33-.7,20.65-1.58,32-2.47-24.35,33.6-41.8,69.61-49.72,110.21L44.81,233.4c-.62-.09-1.23-.28-1.84-.32-11.53-.65-19.58-5.91-23-17.33Z" transform="translate(-20 -23)"/><path d="M20,392.75c2.4-3,4.57-6.15,7.24-8.84q32.6-32.79,65.43-65.36a17.05,17.05,0,0,1,7.94-4.38c4.5-1,8.36,1.08,10.77,5.1a10.71,10.71,0,0,1-.4,12.32,25.8,25.8,0,0,1-3.25,3.61q-32.16,32.19-64.37,64.31c-2.78,2.76-6.06,5-9.11,7.49h-6A17.05,17.05,0,0,1,20,398.75Z" transform="translate(-20 -23)"/><path d="M20,326.75c2.06-3.05,3.74-6.48,6.26-9.09,10.88-11.2,22-22.13,33-33.21,3.22-3.25,6.91-5,11.47-3.89,8.32,2,11.72,12.14,5.73,18.35Q58,318.08,38.86,336.54c-5.76,5.55-14.89,3-17.9-4.39-.33-.8-.64-1.6-1-2.4Z" transform="translate(-20 -23)"/><path d="M97.25,407c-.68-.28-1.35-.58-2-.84-7.88-3-10.39-12.3-4.54-18.31,12.21-12.53,24.62-24.86,37.09-37.12a11.12,11.12,0,0,1,15.59,0,10.88,10.88,0,0,1,.41,15.53q-18.47,18.92-37.37,37.37c-1.6,1.57-4.08,2.26-6.15,3.35Z" transform="translate(-20 -23)"/><path d="M102,200.47c41.54,41.53,83,83,125.07,125.07-10.6,3.16-21.14,6.4-31.76,9.39-4.07,1.15-8.31,1.7-12.46,2.57-6.9,1.45-13-.25-17.94-5.14q-35.23-35-70.24-70.25c-4.89-4.92-6.88-11.12-5.1-17.92,3.6-13.73,7.52-27.38,11.34-41.06A20.63,20.63,0,0,1,102,200.47Z" transform="translate(-20 -23)"/><path d="M249.38,143.84a33.73,33.73,0,1,1,33.38,33.76A33.71,33.71,0,0,1,249.38,143.84Z" transform="translate(-20 -23)"/></svg>