<svg id="Layer_1" class="fill-color" data-name="Layer 1" xmlns="http://www.w3.org/2000/svg" viewBox="0 0 371.17 384">
<style>
.fill-color {
  fill:#F05E3E;

}
</style><path d="M184.5,403c-4.79-1.25-9.6-2.4-14.35-3.79-3.79-1.1-5.48-3.21-4.78-7.73,1.16-7.5,1.37-15.14,2-23.5,5,1.57,10,2.45,14.32,4.63,7,3.58,13.51,3.58,20.55,0,4.26-2.15,9.15-3.06,14.22-4.67.82,9.34,1.68,18.11,2.22,26.9.06,1-1.42,2.76-2.54,3.16-4.55,1.63-9.24,2.87-13.88,4.24-.93.27-1.87.49-2.81.74Z" transform="translate(-6.41 -19)"/><path d="M194.25,19c4.27,3.3,6.44,11.71,3.6,16.32-1.11,1.81-3.85,3.6-5.85,3.6s-4.74-1.79-5.86-3.6c-2.85-4.63-.69-13,3.61-16.32Z" transform="translate(-6.41 -19)"/><path d="M288.19,251.59a58.78,58.78,0,0,0,21.93-33.07,10.21,10.21,0,0,1,4.6-6c3.31-1.68,6.26.64,6.91,4.54q11.6,69.81,23.2,139.64c.1.6.1,1.22.19,2.47-48.77-15.64-97.34-15.66-146.27.13V278.42c0-1.12.05-2.25,0-3.37-.27-3.95-3-6.72-6.65-6.77s-6.49,2.71-6.79,6.61c-.08,1.12,0,2.25,0,3.38v81c-48.76-15.73-97.27-15.75-146.4,0,.85-5.24,1.6-10,2.39-14.7Q51.66,281.92,62.1,219.31c.87-5.21,4.38-7.94,9.44-7.4a3.89,3.89,0,0,1,2.24,1.59c14.44,19.65,33.8,26.6,57.84,22.46.47.69,1.11,1.57,1.7,2.49a42,42,0,0,0,61.82,10.65c1.93-1.52,3.54-1.76,6-1.47,6.83.82,11.41,3,14.73,10.08,4.23,9,13.7,12.85,22.72,16,8.14,2.87,15.39,6.6,21.46,13,6.48,6.89,17.07,7.62,24.85,2.79a20.57,20.57,0,0,0,9-23.76C292.34,261.06,290.19,256.54,288.19,251.59Z" transform="translate(-6.41 -19)"/><path d="M289.23,231.72a43,43,0,0,1-24.42,16c-.84.21-1.71.35-2.55.57-4.47,1.17-6.57,4.13-5.78,8.13.75,3.78,4.1,5.81,8.67,4.9,3.53-.71,7-1.82,11.29-3,1.53,4,3.46,8.14,4.69,12.5.86,3-.66,5.68-3.44,7.25-3.08,1.73-6.07,1.18-8.65-1.12-1.86-1.65-3.28-4-5.36-5.19-5.87-3.46-11.93-6.59-18-9.68-4.21-2.15-8.73-3.74-12.8-6.1-2.56-1.48-4.57-3.92-7.42-6.47,4.11-1,7.15-1.6,10.12-2.44,4.24-1.21,6.23-4.66,5.12-8.55a6.52,6.52,0,0,0-8.34-4.36c-11.43,3.1-22.68,3-33.83-1.25-3.67-1.39-6.33.4-8.92,3-13.08,13.22-34.43,11.32-44.55-4-6-9-6.51-18.66-2-28.53.52-1.14,1.22-2.19,1.68-3.34a6.66,6.66,0,0,0-2.76-8.44,6.44,6.44,0,0,0-8.89,2.11c-1.71,2.73-2.94,5.75-4.4,8.67-5.49-.37-8.65-3.53-9.39-9.49-.53-4.27-2.59-6.54-6.14-6.77-4.49-.3-7.51,3-7.31,7.9a23.55,23.55,0,0,0,17.53,21.42l3.23.82c.2,2.16.39,4.13.61,6.55-15,2.83-27.95-1-38.56-11.94a40.19,40.19,0,0,1-7.86-44c1.43,1,2.78,2.06,4.2,3,3.7,2.45,7.67,1.87,9.89-1.39s1.45-7-2.08-9.47c-4.92-3.48-7.44-8-6.71-14.07a13.33,13.33,0,0,1,9.35-11.58c5.41-1.91,10.34-.7,14.5,3.32.63.61,1.14,1.33,1.76,1.95,2.79,2.78,6.68,3,9.43.61s3.11-6.22.67-9.42c-4.63-6.06-11-9.25-18.34-10.49,1.22-9.88,12.07-17.74,21.76-15.68-.33,1.18-.66,2.34-1,3.52a6.67,6.67,0,0,0,12.61,4.34c.49-1.14.76-2.37,1.19-3.54,7.2-19.76,32-28,48.47-16.16-.4,2.55-1,5.11-1.17,7.69-.28,4.41,2.38,7.57,6.28,7.83s6.7-2.6,7.13-7.06c1-10.53,10.66-16.69,19.83-12.59,5.56,2.5,8.07,7.08,8.61,13,.53,5.73,6.35,8.69,10.48,5.19,1.72-1.46,2.51-4,3.91-6.43,15.72-1.07,35.31,15.44,38.41,33.06-2.38,1.25-4.88,2.36-7.17,3.81-3.92,2.49-5,6.61-2.74,9.91s6,3.89,9.88,1.43c5.25-3.32,10.58-3.74,15.87-.42,4.87,3.06,7,7.7,6.43,13.43a14,14,0,0,1-6.43,10.5c-.82.57-1.75,1-2.55,1.56a6.54,6.54,0,0,0-2.16,8.61,6.62,6.62,0,0,0,8.68,2.93c1.68-.73,3.24-1.73,4.88-2.62,4.61,11,.19,25-10.09,32.31-10,7.15-24.73,7.27-32.92.16,4.2-6.86,5.25-14.15,2.2-21.78-1.79-4.48-5.32-6.36-9.05-5s-5.15,5.09-3.59,9.63c1.88,5.48.18,10.58-4.32,12.92-4.77,2.49-10,1-13.42-3.82-2.93-4.14-6.38-5.24-9.79-3.12-3.57,2.21-4.14,6.17-1.52,10.51a23.43,23.43,0,0,0,25.61,10.43c1.22-.3,2.84-.56,3.8,0C268,233.38,271.29,234.14,289.23,231.72Zm-98.54-37.85a20.61,20.61,0,0,1-15.91,8.35c-4.62.25-7.19,3.1-7,7.1s3,6.47,7.7,6.27c13.09-.56,22.71-6.78,28.81-18.31a6.9,6.9,0,0,1,4.78-4c15.93-4.42,25.88-14.81,29.79-30.89,1-4.07-1-7.57-4.66-8.49-3.93-1-7.22,1.09-8.41,5.35-.17.6-.28,1.22-.45,1.81a26.71,26.71,0,0,1-27.82,19.84c-7.14-.45-13.11-3.51-18.24-8.5-4.25-4.13-10.83-2.39-11.49,3.14a9.66,9.66,0,0,0,2.4,6.59C175.51,188.22,182.53,191.71,190.69,193.87ZM139.5,156.66c-.05,4.52,2.4,7.56,6.28,7.81s6.81-2.64,7.21-7.35a20.55,20.55,0,0,1,.45-3.32c1.88-7.74,7.78-12.67,16-13.42,5.21-.49,7.89-3,7.65-7.29s-3.23-6.36-8.53-6.16C153,127.51,139.68,141.19,139.5,156.66Z" transform="translate(-6.41 -19)"/><path d="M231.88,389.53c-.67-8.42-1.3-16.25-2-24.71,7.8-1,15.29-2.23,22.83-2.86a225,225,0,0,1,85.17,9.16c2.81.86,5.9,1.72,8.75,1.45,8.19-.77,13.05-7.81,11.72-16.46-1.24-8-2.69-16-4-24Q346,281.85,337.63,231.6a4.37,4.37,0,0,1,.08-1.08c7.34-1.65,10.54.38,12,7.6q13.72,70.19,27.44,140.39c1.61,8.24-.74,11-9.24,11h-136Z" transform="translate(-6.41 -19)"/><path d="M154.11,364.73c-.68,8.54-1.31,16.44-2,24.8H15.66c-7.93,0-10.34-2.86-8.81-10.72q13.82-71.08,27.7-142.16c1.12-5.7,4.8-7.6,12-6.11Q44.08,245.26,41.63,260c-5.33,32-10.73,64-16,96-1.88,11.48,7.08,19.28,18.18,15.83,27.49-8.54,55.54-12.2,84.27-10C136.64,362.46,145.14,363.7,154.11,364.73Z" transform="translate(-6.41 -19)"/><path d="M129.15,25c.92.84,3.4,2.15,4.4,4.19,2.94,6,5.4,12.28,7.84,18.53,1.52,3.92-.11,7.51-3.67,9s-7.07-.09-8.77-4c-2.62-6-5.16-12.12-7.54-18.26C119.53,29.56,122.66,24.94,129.15,25Z" transform="translate(-6.41 -19)"/><path d="M250.26,57.21c-6,0-9.46-4.34-7.84-8.79,2.46-6.77,5.31-13.41,8.29-20A6.3,6.3,0,0,1,259,25.5a6.43,6.43,0,0,1,3.82,8.26c-2.53,6.61-5.14,13.22-8.2,19.6C253.71,55.29,251.17,56.44,250.26,57.21Z" transform="translate(-6.41 -19)"/><path d="M37,116.31a27.91,27.91,0,0,1,2.79.82c5.64,2.29,11.29,4.56,16.88,7,4.41,1.89,6.1,5.47,4.55,9.23s-5.4,5-9.76,3.19c-5.87-2.38-11.74-4.77-17.54-7.33-3.45-1.52-4.88-4.54-4-7.91S33.19,116.39,37,116.31Z" transform="translate(-6.41 -19)"/><path d="M322.33,128.81c.85-.88,2.23-3.28,4.29-4.28,5.92-2.87,12.08-5.26,18.21-7.66,3.78-1.47,7.37,0,8.85,3.29a6.61,6.61,0,0,1-3.59,9c-6.26,2.74-12.57,5.39-19,7.78C326.51,138.66,322.1,135.23,322.33,128.81Z" transform="translate(-6.41 -19)"/><path d="M301,85.58c-5.3.1-9.05-5.71-6.17-9.77a49.22,49.22,0,0,1,9.4-9.51c2.3-1.86,5.27-1.33,7.57.72,2.13,1.89,3.57,4.75,1.82,7-3.15,4-7.1,7.47-10.8,11.07C302.33,85.52,301.39,85.48,301,85.58Z" transform="translate(-6.41 -19)"/><path d="M83.85,86.15c-2.18-1.05-3.82-1.48-5-2.49a78.21,78.21,0,0,1-7.15-7.07A6.49,6.49,0,0,1,72,67.21a6.63,6.63,0,0,1,9.13-.13c2.59,2.32,5.41,4.61,7.21,7.48A9.1,9.1,0,0,1,89,81.7C88.33,83.58,85.63,84.72,83.85,86.15Z" transform="translate(-6.41 -19)"/></svg>